<?xml version="1.0" standalone="no"?>
<!DOCTYPE svg PUBLIC "-//W3C//DTD SVG 20010904//EN"
 "http://www.w3.org/TR/2001/REC-SVG-20010904/DTD/svg10.dtd">
<svg version="1.0" xmlns="http://www.w3.org/2000/svg"
 width="600.000000pt" height="245.000000pt" viewBox="0 0 600.000000 245.000000"
 preserveAspectRatio="xMidYMid meet">
<g transform="translate(0.000000,245.000000) scale(0.100000,-0.100000)"
fill="#000000" stroke="none">
<path d="M102 2320 c-16 -26 -16 -161 1 -184 11 -15 34 -18 175 -20 106 -2
168 1 178 8 21 16 31 145 14 186 l-12 30 -172 0 c-160 0 -172 -1 -184 -20z
m347 -4 c8 -9 11 -45 9 -98 l-3 -83 -170 0 -170 0 -3 89 c-2 65 1 92 10 98 7
4 81 8 164 8 118 0 154 -3 163 -14z"/>
<path d="M256 2282 c-3 -5 1 -9 9 -9 8 0 12 4 9 9 -3 4 -7 8 -9 8 -2 0 -6 -4
-9 -8z"/>
<path d="M222 2251 c-20 -12 -10 -46 13 -46 14 0 20 7 20 24 0 27 -13 35 -33
22z m25 -26 c0 -8 -4 -15 -9 -15 -4 0 -8 7 -8 15 0 8 4 15 8 15 5 0 9 -7 9
-15z"/>
<path d="M279 2258 c-1 -2 -3 -15 -5 -30 -2 -19 2 -28 11 -28 23 0 28 20 9 36
-18 14 -18 14 0 7 13 -4 17 -3 12 5 -6 11 -24 17 -27 10z"/>
<path d="M327 2253 c-4 -3 -7 -17 -7 -30 0 -16 6 -23 20 -23 11 0 20 4 20 10
0 5 -7 7 -15 4 -9 -4 -15 0 -15 10 0 9 7 16 15 16 8 0 15 5 15 10 0 11 -23 14
-33 3z"/>
<path d="M520 2321 c-16 -31 -13 -176 5 -191 17 -14 320 -21 348 -8 14 7 17
23 17 103 0 83 -2 96 -19 105 -11 6 -89 10 -180 10 -148 0 -161 -1 -171 -19z
m350 -11 c6 -8 9 -51 8 -95 l-3 -80 -164 -3 c-96 -1 -169 2 -174 7 -15 15 -12
172 4 182 8 5 83 8 167 7 123 -2 155 -6 162 -18z"/>
<path d="M668 2263 c-13 -3 -18 -14 -18 -41 1 -31 3 -34 13 -21 7 9 19 18 27
22 11 4 8 8 -10 13 l-25 8 25 6 c14 3 20 8 15 11 -6 3 -18 4 -27 2z"/>
<path d="M715 2250 c-3 -5 -1 -10 6 -10 6 0 9 -8 6 -20 -3 -11 -1 -23 4 -26 5
-3 9 11 9 30 0 35 -12 47 -25 26z"/>
<path d="M948 2329 c-15 -8 -18 -25 -18 -98 0 -60 4 -92 13 -99 7 -6 81 -13
172 -15 200 -6 195 -9 195 113 0 53 -5 91 -12 98 -15 15 -325 16 -350 1z m338
-13 c18 -18 20 -156 2 -174 -8 -8 -60 -12 -168 -12 -108 0 -160 4 -168 12 -15
15 -16 142 -2 169 10 18 23 19 166 19 121 0 159 -3 170 -14z"/>
<path d="M1088 2263 c-13 -3 -18 -14 -18 -39 0 -21 4 -33 10 -29 6 4 8 11 5
16 -4 5 1 9 9 9 9 0 16 5 16 11 0 5 -4 8 -9 4 -5 -3 -12 -1 -16 4 -3 6 11 9
34 8 l41 -1 -20 -21 c-26 -28 -25 -35 5 -35 14 0 25 5 25 10 0 6 -5 10 -12 10
-9 0 -9 3 0 12 20 20 14 40 -10 37 -13 -2 -27 -1 -33 2 -5 3 -18 4 -27 2z"/>
<path d="M1362 2327 c-14 -16 -18 -185 -6 -197 5 -5 82 -12 170 -16 156 -7
162 -6 183 15 18 18 21 32 21 99 -1 51 -5 83 -15 96 -8 11 -18 17 -21 13 -4
-3 1 -14 10 -23 17 -16 21 -89 8 -156 l-4 -28 -168 0 c-144 0 -169 2 -174 16
-12 31 -6 161 7 172 8 7 74 13 163 15 l149 3 -156 2 c-119 1 -159 -1 -167 -11z"/>
<path d="M1777 2326 c-19 -20 -23 -164 -5 -189 11 -15 35 -18 175 -23 156 -4
163 -4 184 17 19 19 21 30 17 105 -2 62 -7 87 -18 94 -8 5 -88 10 -177 10
-127 0 -165 -3 -176 -14z m337 -9 c14 -10 16 -26 14 -97 l-3 -85 -170 0 -170
0 -3 83 c-2 53 1 89 9 98 16 19 297 20 323 1z"/>
<path d="M1921 2223 c1 -21 3 -30 6 -20 2 9 11 17 19 17 8 0 14 5 14 11 0 6
-7 9 -15 5 -8 -3 -15 -1 -15 4 0 5 10 11 23 13 19 4 18 4 -5 6 -26 1 -28 -2
-27 -36z"/>
<path d="M1980 2239 c-7 -11 -10 -22 -8 -23 2 -1 11 -8 21 -15 15 -12 17 -10
17 23 0 40 -13 47 -30 15z"/>
<path d="M2209 2333 c-22 -5 -29 -33 -29 -119 0 -45 5 -75 13 -82 6 -5 84 -12
173 -15 204 -8 200 -10 197 108 -1 49 -7 93 -14 101 -9 11 -44 14 -168 13 -86
-1 -163 -3 -172 -6z m327 -14 c16 -13 20 -154 6 -177 -7 -9 -48 -12 -173 -10
l-164 3 -3 83 c-2 50 2 89 8 97 15 18 305 21 326 4z"/>
<path d="M2348 2263 c-14 -3 -18 -14 -17 -41 1 -20 3 -29 6 -19 2 9 11 17 19
17 20 0 17 20 -3 21 -12 1 -9 4 7 8 27 8 16 20 -12 14z"/>
<path d="M2395 2253 c-16 -16 -16 -17 6 -26 l24 -10 -25 -7 c-21 -6 -22 -8 -8
-15 22 -9 38 1 38 26 0 11 -7 19 -17 20 -16 0 -16 1 1 8 13 5 16 10 9 14 -6 4
-19 0 -28 -10z"/>
<path d="M2612 2328 c-17 -17 -16 -182 1 -195 6 -6 82 -13 167 -17 200 -8 200
-8 200 105 0 125 9 119 -188 119 -117 0 -172 -4 -180 -12z m342 -11 c14 -10
16 -26 14 -97 l-3 -85 -164 -3 c-112 -2 -168 1 -177 9 -10 8 -14 35 -14 85 0
104 -1 104 179 104 103 0 152 -4 165 -13z"/>
<path d="M2860 2275 c-7 -9 -19 -14 -26 -11 -20 7 -37 -21 -30 -49 7 -29 31
-33 40 -8 5 11 1 22 -10 30 -15 11 -15 13 -2 13 8 0 23 9 33 20 10 11 16 20
13 20 -3 0 -11 -7 -18 -15z m-30 -55 c0 -5 -5 -10 -11 -10 -5 0 -7 5 -4 10 3
6 8 10 11 10 2 0 4 -4 4 -10z"/>
<path d="M2764 2262 c-14 -9 -24 -61 -13 -68 5 -3 9 2 9 10 0 9 7 16 15 16 21
0 19 18 -2 23 -13 3 -12 5 5 6 13 0 20 6 17 11 -7 12 -16 12 -31 2z"/>
<path d="M3030 2321 c-15 -29 -13 -176 3 -189 7 -6 81 -12 175 -14 196 -4 192
-6 192 113 0 111 4 109 -195 109 -152 0 -165 -1 -175 -19z m345 -7 c16 -16 19
-90 7 -156 l-4 -28 -168 0 c-144 0 -169 2 -174 16 -3 9 -6 49 -6 90 0 94 -2
93 187 93 118 1 144 -2 158 -15z"/>
<path d="M3237 2264 c3 -8 9 -14 14 -14 6 0 5 -8 -1 -19 -12 -23 -14 -49 -2
-35 5 5 13 20 19 34 9 22 8 27 -12 36 -19 9 -22 9 -18 -2z"/>
<path d="M3193 2263 c-7 -2 -13 -21 -13 -40 0 -32 14 -40 15 -10 1 7 6 11 13
10 19 -4 14 15 -5 20 -13 3 -12 5 5 6 13 0 20 6 17 11 -7 11 -13 11 -32 3z"/>
<path d="M3450 2325 c-16 -19 -20 -179 -5 -194 6 -6 82 -11 178 -13 202 -4
197 -6 197 113 0 111 4 109 -194 109 -135 0 -166 -3 -176 -15z m346 -18 c3
-12 4 -56 2 -97 l-3 -75 -164 -3 c-125 -2 -166 1 -173 10 -11 19 -10 146 3
169 9 18 20 20 170 18 155 -1 159 -1 165 -22z"/>
<path d="M3589 2268 c-5 -16 -2 -71 3 -75 5 -2 8 3 8 12 0 8 8 19 17 22 15 6
15 7 -3 14 -17 7 -17 8 -1 8 24 1 22 21 -3 21 -11 0 -20 -1 -21 -2z"/>
<path d="M3651 2261 c-17 -11 -10 -66 9 -66 10 0 16 11 17 32 1 36 -6 46 -26
34z m19 -41 c0 -5 -4 -10 -10 -10 -5 0 -10 5 -10 10 0 6 5 10 10 10 6 0 10 -4
10 -10z"/>
<path d="M3862 2320 c-18 -29 -16 -174 2 -190 10 -8 69 -12 181 -13 198 -2
195 -4 195 108 0 116 1 115 -198 115 -156 0 -168 -1 -180 -20z m347 -4 c8 -9
11 -44 9 -98 l-3 -83 -170 0 -170 0 -3 83 c-2 50 2 89 8 97 17 20 312 21 329
1z"/>
<path d="M4004 2258 c-5 -7 -9 -20 -8 -28 4 -42 6 -44 14 -22 5 12 15 22 22
23 7 0 4 4 -7 9 -17 7 -17 9 -2 9 9 1 17 6 17 11 0 14 -26 12 -36 -2z"/>
<path d="M4056 2263 c-13 -13 -5 -43 12 -44 15 0 15 -1 -2 -8 -14 -5 -16 -10
-8 -15 19 -11 32 3 32 34 0 26 -21 46 -34 33z m24 -23 c0 -5 -4 -10 -10 -10
-5 0 -10 5 -10 10 0 6 5 10 10 10 6 0 10 -4 10 -10z"/>
<path d="M4286 2324 c-23 -23 -23 -176 1 -195 23 -20 298 -25 333 -6 23 12 25
18 28 99 4 121 9 118 -188 118 -131 0 -161 -3 -174 -16z m335 -4 c16 -9 19
-22 19 -85 0 -40 -3 -80 -6 -89 -5 -14 -30 -16 -169 -16 -111 0 -166 4 -171
11 -14 23 -12 160 3 175 11 11 47 14 159 14 81 0 154 -5 165 -10z"/>
<path d="M4418 2263 c-11 -3 -16 -14 -16 -34 1 -30 18 -53 18 -25 0 9 7 16 15
16 8 0 15 5 15 11 0 6 -7 9 -15 5 -8 -3 -15 -1 -15 4 0 6 7 10 15 10 8 0 15 5
15 10 0 10 -4 11 -32 3z"/>
<path d="M4470 2250 c-9 -6 -10 -10 -3 -10 6 0 14 -12 16 -27 3 -23 4 -21 6
10 0 20 0 37 -1 37 -2 0 -10 -5 -18 -10z"/>
<path d="M4510 2231 c0 -36 19 -50 35 -27 17 23 7 56 -16 56 -14 0 -19 -7 -19
-29z m30 -1 c0 -11 -4 -20 -10 -20 -5 0 -10 9 -10 20 0 11 5 20 10 20 6 0 10
-9 10 -20z"/>
<path d="M4702 2328 c-18 -18 -16 -182 2 -198 23 -18 327 -19 349 -1 14 11 17
32 17 100 0 54 -5 92 -12 99 -8 8 -62 12 -178 12 -116 0 -170 -4 -178 -12z
m348 -17 c14 -27 13 -154 -2 -169 -8 -8 -60 -12 -168 -12 -108 0 -160 4 -168
12 -16 16 -16 160 0 176 8 8 60 12 170 12 145 0 158 -1 168 -19z"/>
<path d="M4820 2224 c0 -21 4 -33 10 -29 6 4 8 11 5 16 -4 5 1 9 9 9 9 0 16 5
16 11 0 5 -4 8 -9 4 -5 -3 -12 -1 -15 4 -4 5 4 12 16 14 20 4 19 4 -4 6 -26 1
-28 -2 -28 -35z"/>
<path d="M4885 2251 c-3 -5 -1 -13 5 -16 6 -4 8 -15 5 -26 -4 -11 -2 -19 4
-19 6 0 11 16 11 35 0 33 -12 46 -25 26z"/>
<path d="M4937 2254 c-3 -4 -1 -16 5 -28 6 -11 10 -22 9 -24 -2 -2 0 -6 3 -9
3 -4 6 10 6 30 0 35 -8 45 -23 31z"/>
<path d="M5119 2323 c-10 -11 -14 -44 -14 -100 0 -69 3 -87 18 -97 25 -19 327
-16 350 3 13 10 17 31 17 93 0 123 9 118 -189 118 -145 0 -170 -2 -182 -17z
m343 -6 c10 -10 12 -36 8 -98 l-5 -84 -170 0 -170 0 -3 85 c-2 71 0 87 14 97
25 19 307 18 326 0z"/>
<path d="M5220 2225 c0 -19 5 -35 10 -35 6 0 10 7 10 15 0 8 7 15 16 15 8 0
12 5 9 10 -4 6 -11 8 -16 5 -5 -4 -9 -2 -9 4 0 5 8 12 18 14 10 3 6 5 -10 6
-25 1 -28 -2 -28 -34z"/>
<path d="M5290 2250 c-9 -6 -10 -10 -3 -10 6 0 14 -12 16 -27 3 -23 4 -21 6
10 0 20 0 37 -1 37 -2 0 -10 -5 -18 -10z"/>
<path d="M5330 2250 c0 -5 7 -7 15 -4 8 4 15 2 15 -4 0 -5 -7 -15 -15 -22 -20
-17 -19 -27 5 -33 13 -3 20 0 20 10 0 8 -4 11 -10 8 -5 -3 -10 -2 -10 4 0 5 5
13 10 16 18 11 11 35 -10 35 -11 0 -20 -4 -20 -10z"/>
<path d="M5532 2315 c-17 -37 -15 -157 2 -181 13 -17 28 -19 181 -19 153 0
168 2 181 19 17 24 19 144 2 181 l-11 25 -172 0 -172 0 -11 -25z m341 3 c15
-8 17 -21 15 -96 l-3 -87 -170 0 -170 0 -3 83 c-2 55 1 89 9 98 10 12 42 15
158 13 80 0 154 -5 164 -11z"/>
<path d="M5702 2240 c-11 -19 -10 -20 24 -20 36 0 37 0 19 20 -10 11 -21 20
-24 20 -3 0 -12 -9 -19 -20z"/>
<path d="M5703 2203 c15 -2 37 -2 50 0 12 2 0 4 -28 4 -27 0 -38 -2 -22 -4z"/>
<path d="M1491 2227 c1 -23 3 -34 6 -24 2 9 11 17 19 17 20 0 17 20 -3 21 -16
0 -15 1 1 8 19 7 19 8 -2 13 -20 6 -22 3 -21 -35z"/>
<path d="M1545 2251 c-3 -6 0 -9 7 -6 8 3 14 -4 14 -20 2 -20 -1 -23 -11 -15
-8 7 -15 7 -19 1 -7 -11 29 -25 43 -16 15 9 5 60 -12 63 -8 2 -18 -2 -22 -7z"/>
<path d="M100 2061 c-15 -29 -13 -293 3 -315 11 -15 31 -17 167 -17 135 0 157
3 167 18 16 21 18 285 3 314 -10 18 -23 19 -170 19 -147 0 -160 -1 -170 -19z
m323 -10 c13 -13 14 -288 0 -302 -5 -5 -73 -8 -159 -7 l-149 3 -3 150 c-2 130
0 151 14 162 22 16 280 11 297 -6z"/>
<path d="M240 1961 c0 -11 49 -21 55 -11 3 4 -5 10 -18 14 -30 8 -37 7 -37 -3z"/>
<path d="M260 1850 c0 -5 5 -10 10 -10 6 0 10 5 10 10 0 6 -4 10 -10 10 -5 0
-10 -4 -10 -10z"/>
<path d="M136 1787 c3 -10 9 -15 12 -12 3 3 0 11 -7 18 -10 9 -11 8 -5 -6z"/>
<path d="M512 2068 c-14 -14 -17 -305 -3 -326 9 -15 307 -23 329 -9 17 11 17
318 0 335 -17 17 -309 17 -326 0z m318 -14 c7 -7 10 -63 8 -160 l-3 -149 -149
-3 c-101 -2 -153 1 -162 9 -11 9 -14 45 -14 156 0 133 1 144 20 151 31 11 288
8 300 -4z"/>
<path d="M668 2013 c-5 -25 -2 -83 4 -83 5 0 8 20 8 45 0 39 -7 61 -12 38z"/>
<path d="M670 1870 c-11 -8 -12 -12 -3 -18 7 -4 11 -18 8 -30 -2 -12 0 -24 6
-27 5 -4 9 14 9 39 0 25 -1 46 -2 46 -2 0 -10 -5 -18 -10z"/>
<path d="M910 2061 c-5 -11 -10 -84 -10 -164 0 -114 3 -147 15 -157 19 -16
312 -17 329 0 7 7 12 65 14 160 2 125 0 151 -13 164 -14 13 -43 16 -170 16
-142 0 -155 -2 -165 -19z m321 -8 c6 -6 8 -69 7 -159 l-3 -149 -155 0 -155 0
-3 150 c-2 118 0 152 11 160 18 13 284 12 298 -2z"/>
<path d="M1039 2004 c-20 -24 -21 -55 -3 -76 20 -22 67 -24 84 -4 10 13 7 13
-20 3 -29 -11 -34 -10 -51 12 -17 21 -18 26 -6 45 8 12 23 22 34 24 24 4 47
-22 39 -43 -8 -22 -25 -19 -19 4 6 23 -21 35 -37 16 -17 -20 -8 -50 15 -50 24
0 55 23 55 41 0 38 -66 58 -91 28z m49 -36 c-6 -18 -28 -21 -28 -4 0 9 7 16
16 16 9 0 14 -5 12 -12z"/>
<path d="M1057 1864 c-4 -4 -7 -12 -7 -18 0 -6 5 -5 12 2 16 16 28 15 28 -3 0
-8 -9 -19 -20 -25 -11 -6 -20 -15 -20 -19 0 -12 49 -20 56 -10 3 5 -5 9 -18 9
l-23 0 21 18 c11 9 20 24 20 32 -1 16 -37 26 -49 14z"/>
<path d="M1322 2068 c-16 -16 -17 -324 -1 -334 20 -12 309 -6 325 7 11 9 14
43 14 156 0 80 -5 153 -10 164 -10 17 -23 19 -163 19 -106 0 -157 -4 -165 -12z
m309 -8 c17 -10 19 -23 19 -153 0 -98 -4 -147 -12 -155 -8 -8 -58 -12 -160
-12 -175 0 -160 -18 -156 180 l3 135 140 5 c77 3 141 7 143 8 2 1 12 -3 23 -8z"/>
<path d="M1471 2008 c0 -9 -7 -19 -13 -21 -7 -3 -3 -6 10 -6 12 -1 22 -6 22
-12 0 -6 -7 -9 -15 -6 -19 8 -26 -5 -14 -23 6 -10 9 -11 9 -2 0 6 4 12 10 12
5 0 7 -8 4 -17 -5 -16 -4 -16 10 1 8 10 13 23 9 29 -3 5 -1 12 5 16 7 4 8 12
2 21 -7 10 -10 11 -10 3 0 -19 -18 -16 -23 5 -4 15 -5 15 -6 0z"/>
<path d="M1459 1858 l-12 -23 23 20 c23 19 23 19 16 1 -4 -11 -2 -22 5 -27 6
-4 8 -12 4 -18 -5 -9 -10 -9 -21 0 -11 9 -14 8 -14 -5 0 -12 7 -16 23 -14 21
3 26 23 18 81 -2 16 -31 6 -42 -15z"/>
<path d="M1605 1799 c-4 -6 -5 -12 -2 -15 2 -3 7 2 10 11 7 17 1 20 -8 4z"/>
<path d="M1720 2061 c-16 -31 -13 -306 4 -320 20 -17 311 -20 327 -4 8 8 14
62 16 159 6 195 17 184 -183 184 -141 0 -154 -2 -164 -19z m320 -7 c7 -7 10
-63 8 -160 l-3 -149 -153 -3 c-117 -2 -153 0 -157 10 -2 7 -5 73 -8 147 -3
113 -1 137 12 150 13 13 41 16 153 16 85 0 141 -4 148 -11z"/>
<path d="M1869 2004 c-11 -14 -10 -19 9 -34 27 -23 28 -33 2 -25 -24 8 -27
-10 -3 -19 9 -4 23 0 32 8 13 14 13 18 -4 35 -9 11 -22 18 -26 15 -5 -3 -9 0
-9 6 0 8 9 10 25 6 30 -8 33 -1 6 13 -14 8 -22 7 -32 -5z"/>
<path d="M1883 1856 c-27 -34 -29 -46 -8 -46 8 0 15 -4 15 -10 0 -14 17 -12
22 3 2 6 2 28 -2 47 l-5 35 -22 -29z m17 -20 c0 -3 -4 -8 -10 -11 -5 -3 -10
-1 -10 4 0 6 5 11 10 11 6 0 10 -2 10 -4z"/>
<path d="M2130 2070 c-12 -8 -15 -37 -14 -165 0 -92 4 -159 10 -165 16 -16
311 -15 330 0 19 16 21 309 2 328 -15 15 -305 17 -328 2z m312 -18 c12 -12 19
-261 8 -289 -9 -22 -13 -23 -159 -23 -126 0 -150 2 -155 16 -10 26 -7 289 3
300 13 12 291 8 303 -4z"/>
<path d="M2257 2013 c-4 -3 -7 -15 -7 -25 0 -14 6 -18 26 -15 25 3 44 22 44
42 -1 6 -7 1 -15 -9 -13 -17 -15 -17 -21 -3 -6 18 -16 21 -27 10z"/>
<path d="M2303 1954 c-8 -21 13 -42 28 -27 13 13 5 43 -11 43 -6 0 -13 -7 -17
-16z"/>
<path d="M2270 1941 c-6 -12 -7 -21 -1 -21 10 0 24 30 17 37 -2 3 -9 -5 -16
-16z"/>
<path d="M2380 1951 c0 -6 4 -13 10 -16 6 -3 7 1 4 9 -7 18 -14 21 -14 7z"/>
<path d="M2270 1855 c0 -19 5 -25 16 -23 10 2 19 -3 22 -11 3 -10 -2 -12 -21
-7 -21 5 -25 3 -20 -9 9 -24 47 -14 51 13 2 16 -3 25 -20 31 l-23 10 23 0 c30
1 28 21 -3 21 -20 0 -25 -5 -25 -25z"/>
<path d="M2532 2068 c-18 -18 -17 -312 2 -327 22 -18 315 -18 327 0 9 14 15
184 10 274 -2 28 -8 53 -14 57 -21 13 -312 9 -325 -4z m317 -12 c12 -8 16
-271 5 -300 -5 -14 -28 -16 -153 -16 -101 0 -151 4 -159 12 -8 8 -12 57 -12
155 0 140 0 143 23 148 51 12 277 12 296 1z"/>
<path d="M2682 1986 c-7 -16 -8 -26 -2 -26 6 0 10 5 10 11 0 8 5 8 15 -1 18
-15 20 0 2 24 -12 17 -14 16 -25 -8z"/>
<path d="M2682 1878 c-21 -21 -11 -78 13 -78 7 0 19 7 26 16 11 14 10 19 -9
34 -26 22 -29 32 -5 23 11 -4 14 -3 9 5 -9 15 -19 15 -34 0z m20 -60 c-9 -9
-12 -7 -12 12 0 19 3 21 12 12 9 -9 9 -15 0 -24z"/>
<path d="M2933 2068 c-4 -7 -9 -78 -11 -158 -3 -111 0 -149 10 -163 13 -17 30
-19 167 -19 103 0 157 4 167 12 22 19 20 302 -2 324 -13 13 -43 16 -169 16
-112 0 -156 -3 -162 -12z m312 -11 c19 -6 20 -15 19 -150 0 -79 -4 -149 -8
-155 -8 -13 -270 -18 -300 -6 -14 5 -16 28 -16 153 0 81 4 151 10 157 10 10
263 11 295 1z"/>
<path d="M3094 2012 c-6 -4 -15 -21 -18 -38 -8 -36 8 -54 40 -45 16 5 20 11
14 26 -7 18 -8 19 -15 3 -8 -20 -39 -25 -32 -5 2 6 9 11 15 10 14 -3 27 36 15
48 -4 4 -13 5 -19 1z"/>
<path d="M3080 1870 c0 -5 7 -10 15 -10 12 0 13 -4 5 -19 -5 -11 -10 -28 -10
-37 0 -10 9 -1 20 21 26 50 25 55 -5 55 -14 0 -25 -4 -25 -10z"/>
<path d="M3342 2068 c-15 -15 -17 -324 -2 -333 14 -9 314 -10 328 -1 17 10 17
317 0 334 -8 8 -59 12 -163 12 -104 0 -155 -4 -163 -12z m326 -157 c2 -97 -1
-148 -9 -157 -9 -11 -45 -14 -154 -14 -109 0 -145 3 -154 14 -8 9 -11 60 -9
157 l3 144 135 5 c74 3 146 2 160 -1 l25 -5 3 -143z"/>
<path d="M3495 1991 c-3 -5 -1 -12 5 -16 12 -7 30 2 30 16 0 12 -27 12 -35 0z"/>
<path d="M3488 1883 c-11 -20 -6 -62 7 -73 22 -18 43 4 41 43 -1 24 -7 33 -23
35 -12 2 -23 0 -25 -5z m32 -13 c0 -5 -4 -10 -10 -10 -5 0 -10 5 -10 10 0 6 5
10 10 10 6 0 10 -4 10 -10z m0 -40 c0 -5 -4 -10 -9 -10 -6 0 -13 5 -16 10 -3
6 1 10 9 10 9 0 16 -4 16 -10z"/>
<path d="M3742 2068 c-13 -16 -16 -308 -3 -327 14 -22 320 -20 336 2 7 10 12
70 13 160 2 122 0 148 -13 161 -14 13 -42 16 -169 16 -111 0 -156 -3 -164 -12z
m319 -15 c5 -5 8 -77 7 -159 l-3 -149 -149 -3 c-82 -1 -154 2 -159 7 -15 15
-9 294 7 306 16 12 285 10 297 -2z"/>
<path d="M3906 2004 c-11 -27 -6 -70 9 -90 17 -23 19 -17 5 23 -7 20 -8 38 -1
56 6 15 7 27 2 27 -5 0 -12 -7 -15 -16z"/>
<path d="M3890 1846 c0 -20 5 -26 21 -26 12 0 17 -4 14 -11 -4 -6 -13 -8 -21
-5 -8 3 -14 1 -14 -4 0 -6 12 -10 26 -10 23 0 25 3 22 38 -2 30 -7 38 -25 40
-19 3 -23 -1 -23 -22z m38 -4 c2 -7 -3 -12 -12 -12 -9 0 -16 7 -16 16 0 17 22
14 28 -4z"/>
<path d="M4153 2074 c-16 -7 -18 -329 -3 -339 20 -12 310 -7 326 6 22 18 20
301 -2 323 -13 13 -41 16 -162 15 -81 0 -152 -3 -159 -5z m312 -18 c12 -4 15
-31 15 -149 0 -98 -4 -147 -12 -155 -8 -8 -58 -12 -159 -12 -125 0 -148 2
-153 16 -3 9 -6 78 -6 155 0 129 1 140 19 147 23 8 274 7 296 -2z"/>
<path d="M4314 1966 c1 -35 5 -51 10 -45 12 11 11 78 -1 90 -5 5 -9 -13 -9
-45z"/>
<path d="M4294 1856 c-11 -29 1 -61 23 -64 24 -4 38 25 28 58 -7 23 -43 27
-51 6z m36 -26 c0 -16 -4 -30 -9 -30 -12 0 -19 21 -13 43 7 28 22 20 22 -13z"/>
<path d="M4251 1784 c0 -11 3 -14 6 -6 3 7 2 16 -1 19 -3 4 -6 -2 -5 -13z"/>
<path d="M4369 1763 c-13 -16 -12 -17 4 -4 16 13 21 21 13 21 -2 0 -10 -8 -17
-17z"/>
<path d="M4550 2061 c-5 -11 -10 -84 -10 -164 0 -113 3 -147 14 -156 15 -13
305 -19 324 -7 5 3 13 74 17 156 10 201 20 190 -181 190 -141 0 -154 -2 -164
-19z m314 -4 c14 -6 16 -26 16 -156 0 -126 -2 -150 -16 -155 -9 -3 -78 -6
-154 -6 -100 0 -141 3 -147 13 -8 13 -14 250 -6 284 3 13 14 23 26 25 39 5
264 1 281 -5z"/>
<path d="M4690 1976 c0 -9 37 -12 55 -5 15 6 11 8 -17 8 -21 1 -38 -1 -38 -3z"/>
<path d="M4705 1840 c-4 -6 6 -10 22 -10 22 0 25 2 13 10 -19 12 -27 12 -35 0z"/>
<path d="M4959 2064 c-17 -21 -20 -307 -3 -324 16 -16 310 -16 329 0 12 10 15
41 15 157 0 80 -5 153 -10 164 -10 17 -23 19 -164 19 -129 0 -156 -3 -167 -16z
m320 -8 c13 -8 14 -285 1 -305 -4 -8 -55 -11 -161 -9 l-154 3 0 155 0 155 40
5 c59 7 260 4 274 -4z"/>
<path d="M5120 1988 c0 -10 -5 -18 -11 -18 -6 0 -4 -7 5 -15 17 -17 30 -20 21
-5 -3 6 4 10 17 11 15 0 18 3 8 6 -8 4 -20 13 -27 22 -11 14 -12 14 -13 -1z"/>
<path d="M5181 1984 c0 -11 3 -14 6 -6 3 7 2 16 -1 19 -3 4 -6 -2 -5 -13z"/>
<path d="M5113 1843 c9 -2 25 -2 35 0 9 3 1 5 -18 5 -19 0 -27 -2 -17 -5z"/>
<path d="M5113 1813 c9 -2 25 -2 35 0 9 3 1 5 -18 5 -19 0 -27 -2 -17 -5z"/>
<path d="M4998 1783 c7 -3 16 -2 19 1 4 3 -2 6 -13 5 -11 0 -14 -3 -6 -6z"/>
<path d="M5354 2063 c-14 -31 -14 -300 0 -319 11 -14 40 -16 271 -15 172 1
263 5 272 12 16 14 19 290 3 320 -10 18 -24 19 -274 19 -242 0 -265 -1 -272
-17z m523 -7 c11 -5 13 -36 11 -158 l-3 -153 -260 0 -260 0 0 155 0 155 80 5
c98 6 413 3 432 -4z"/>
<path d="M5640 1835 c0 -8 2 -15 4 -15 2 0 6 7 10 15 3 8 1 15 -4 15 -6 0 -10
-7 -10 -15z"/>
<path d="M5712 1820 c0 -19 2 -27 5 -17 2 9 2 25 0 35 -3 9 -5 1 -5 -18z"/>
<path d="M5770 1841 c0 -6 5 -13 10 -16 6 -3 10 1 10 9 0 9 -4 16 -10 16 -5 0
-10 -4 -10 -9z"/>
<path d="M5614 1825 c-3 -8 -3 -19 1 -25 8 -13 35 -13 35 0 0 6 -6 9 -12 8 -7
-2 -12 5 -10 15 3 21 -6 23 -14 2z"/>
<path d="M5666 1825 c-8 -22 1 -35 22 -34 15 1 15 2 0 6 -19 5 -24 18 -9 27 5
4 12 1 14 -4 3 -6 4 -5 3 2 -4 19 -23 21 -30 3z"/>
<path d="M5737 1833 c-14 -14 -7 -43 11 -42 10 0 12 3 5 6 -7 2 -13 12 -13 21
0 14 2 15 10 2 5 -8 12 -11 15 -8 8 8 -2 28 -14 28 -4 0 -11 -3 -14 -7z"/>
<path d="M5807 1834 c-16 -16 -7 -44 14 -44 15 0 20 5 17 22 -3 22 -19 33 -31
22z m17 -19 c3 -8 1 -15 -4 -15 -6 0 -10 7 -10 15 0 8 2 15 4 15 2 0 6 -7 10
-15z"/>
<path d="M5775 1800 c-3 -5 -1 -10 4 -10 6 0 11 5 11 10 0 6 -2 10 -4 10 -3 0
-8 -4 -11 -10z"/>
<path d="M100 1671 c-15 -29 -13 -293 3 -315 12 -16 35 -18 272 -17 234 0 261
2 272 18 9 12 13 61 13 159 0 116 -3 145 -16 158 -13 14 -52 16 -274 16 -246
0 -260 -1 -270 -19z m528 1 c9 -7 12 -46 10 -163 l-3 -154 -260 0 -260 0 -3
149 c-2 101 1 153 9 162 9 11 59 14 253 14 132 0 247 -4 254 -8z"/>
<path d="M161 1438 c-1 -35 0 -36 32 -35 17 1 31 5 30 10 -2 4 -3 14 -3 22 0
9 -9 15 -22 14 -19 -1 -19 -2 -5 -6 18 -5 18 -5 0 -18 -16 -12 -19 -11 -24 18
l-6 32 -2 -37z"/>
<path d="M238 1434 c3 -26 9 -34 21 -32 22 4 28 48 7 48 -9 0 -16 5 -16 10 0
6 -4 10 -8 10 -4 0 -6 -16 -4 -36z m32 -9 c0 -8 -4 -15 -10 -15 -5 0 -10 7
-10 15 0 8 5 15 10 15 6 0 10 -7 10 -15z"/>
<path d="M716 1674 c-13 -13 -16 -42 -16 -158 0 -98 4 -147 13 -159 10 -14 36
-17 165 -19 196 -4 184 -15 180 185 -2 118 -6 150 -18 157 -8 5 -81 10 -162
10 -120 0 -149 -3 -162 -16z m308 0 c24 -9 24 -309 0 -318 -24 -9 -277 -7
-292 3 -19 11 -17 301 1 313 14 9 268 11 291 2z"/>
<path d="M846 1564 c-21 -20 -20 -68 0 -85 9 -7 30 -14 48 -15 29 -1 31 2 34
37 4 61 -46 100 -82 63z m62 -43 c3 -27 0 -33 -12 -28 -9 4 -16 2 -16 -3 0
-19 -21 -10 -32 15 -14 30 5 57 36 53 16 -2 22 -11 24 -37z"/>
<path d="M1116 1668 c-19 -31 -15 -294 6 -314 18 -19 301 -22 323 -4 12 10 15
40 15 164 0 105 -4 156 -12 164 -8 8 -59 12 -165 12 -147 0 -153 -1 -167 -22z
m315 2 c17 -10 19 -23 19 -153 0 -98 -4 -147 -12 -155 -13 -13 -271 -18 -302
-6 -14 5 -16 28 -16 153 0 101 4 151 12 159 15 15 271 17 299 2z"/>
<path d="M1220 1560 c0 -24 23 -100 30 -100 4 0 13 21 21 48 l13 47 11 -45 c6
-25 15 -44 20 -43 5 1 15 21 22 45 15 52 16 58 4 58 -5 0 -13 -19 -17 -42 l-7
-43 -11 39 c-16 55 -34 57 -42 6 -7 -43 -24 -38 -24 7 0 12 -4 25 -10 28 -5 3
-10 1 -10 -5z"/>
<path d="M1526 1674 c-22 -21 -24 -305 -3 -323 9 -6 71 -11 167 -12 137 0 156
2 167 17 20 28 18 297 -3 318 -23 23 -305 23 -328 0z m305 -4 c17 -10 19 -23
19 -150 0 -76 -3 -145 -6 -154 -5 -14 -28 -16 -155 -16 -136 0 -149 2 -159 19
-5 11 -10 78 -10 150 0 104 3 133 16 145 12 13 41 16 145 16 72 0 139 -5 150
-10z"/>
<path d="M1650 1515 l0 -55 40 0 c22 0 40 5 40 10 0 6 -16 10 -35 10 -24 0
-35 5 -35 15 0 10 10 15 30 15 17 0 30 5 30 10 0 6 -13 10 -30 10 -21 0 -30 5
-30 16 0 12 7 15 30 12 17 -3 33 -1 36 4 3 4 -13 8 -35 8 l-41 0 0 -55z"/>
<path d="M1930 1680 c-12 -8 -15 -37 -15 -164 0 -109 4 -159 12 -167 17 -17
309 -15 329 2 19 15 21 308 2 327 -15 15 -305 17 -328 2z m315 -22 c3 -13 4
-86 3 -163 l-3 -140 -135 -3 c-198 -4 -180 -19 -180 156 0 102 4 152 12 160 8
8 57 12 155 12 140 0 143 0 148 -22z"/>
<path d="M2040 1516 c0 -31 5 -56 10 -56 6 0 10 11 10 25 0 33 23 32 48 -2 11
-16 24 -25 28 -21 4 5 -1 17 -11 29 -15 16 -16 22 -6 28 7 5 11 17 9 27 -2 14
-13 20 -46 22 l-42 3 0 -55z m65 24 c0 -8 -10 -16 -22 -18 -18 -3 -23 2 -23
18 0 16 5 21 23 18 12 -2 22 -10 22 -18z"/>
<path d="M2332 1678 c-18 -18 -17 -312 2 -327 9 -8 64 -11 172 -9 l159 3 3
159 c2 108 -1 163 -9 172 -15 19 -309 20 -327 2z m316 -10 c17 -17 17 -289 0
-306 -8 -8 -57 -12 -155 -12 -130 0 -143 2 -153 19 -15 29 -13 278 3 296 16
19 287 21 305 3z"/>
<path d="M2454 1563 c4 -5 13 -8 19 -8 7 0 15 -22 18 -50 l6 -50 1 54 c2 48 4
53 22 48 11 -3 20 -1 20 4 0 5 -21 9 -47 9 -25 0 -43 -3 -39 -7z"/>
<path d="M2730 1664 c-15 -38 -13 -286 3 -307 10 -14 34 -17 165 -18 107 -1
157 2 167 11 23 19 22 302 -1 324 -13 13 -43 16 -170 16 l-154 0 -10 -26z
m318 4 c8 -8 12 -58 12 -159 0 -125 -2 -148 -16 -153 -20 -8 -268 -8 -288 0
-14 5 -16 29 -16 159 0 113 3 155 13 158 27 12 283 7 295 -5z"/>
<path d="M2869 1541 c12 -16 21 -41 21 -55 0 -14 5 -26 10 -26 6 0 10 12 10
26 0 14 9 39 21 55 11 16 16 29 10 29 -5 0 -17 -10 -25 -22 l-16 -22 -16 22
c-8 12 -20 22 -25 22 -6 0 -1 -13 10 -29z"/>
<path d="M3141 1676 c-18 -22 -18 -316 0 -327 22 -14 313 -11 327 3 17 17 17
309 0 326 -19 19 -312 17 -327 -2z m317 -8 c17 -17 17 -289 0 -306 -17 -17
-289 -17 -306 0 -17 17 -17 289 0 306 8 8 57 12 153 12 96 0 145 -4 153 -12z"/>
<path d="M3260 1531 c0 -43 20 -71 50 -71 25 0 40 29 40 74 0 51 -18 45 -22
-6 -2 -36 -7 -44 -25 -46 -21 -3 -23 1 -23 42 0 25 -4 46 -10 46 -5 0 -10 -18
-10 -39z"/>
<path d="M3330 1430 c0 -5 5 -10 11 -10 5 0 7 5 4 10 -3 6 -8 10 -11 10 -2 0
-4 -4 -4 -10z"/>
<path d="M3290 1426 c0 -2 7 -7 16 -10 8 -3 12 -2 9 4 -6 10 -25 14 -25 6z"/>
<path d="M3542 1678 c-19 -19 -17 -312 3 -328 10 -8 60 -12 167 -11 130 1 155
4 166 18 15 21 17 285 2 314 -10 18 -23 19 -168 19 -110 0 -162 -4 -170 -12z
m316 -10 c8 -8 12 -58 12 -159 0 -125 -2 -148 -16 -153 -24 -9 -292 -7 -298 2
-8 14 -9 285 -1 305 6 15 23 17 149 17 97 0 146 -4 154 -12z"/>
<path d="M3700 1515 c0 -30 5 -55 10 -55 6 0 10 25 10 55 0 30 -4 55 -10 55
-5 0 -10 -25 -10 -55z"/>
<path d="M3949 1669 c-19 -19 -20 -31 -18 -158 2 -98 6 -144 16 -157 12 -17
28 -18 163 -18 106 1 154 5 165 14 12 10 15 39 15 157 0 80 -5 153 -10 164
-10 17 -23 19 -160 19 -138 0 -152 -2 -171 -21z m321 -8 c5 -11 10 -77 10
-146 0 -69 -5 -135 -10 -146 -10 -17 -23 -19 -159 -19 -127 0 -150 2 -155 16
-3 9 -6 80 -6 159 0 128 2 144 18 148 9 3 79 5 154 6 126 1 138 -1 148 -18z"/>
<path d="M4076 1554 c-21 -21 -20 -47 3 -75 16 -20 23 -22 47 -14 52 19 43
105 -12 105 -12 0 -30 -7 -38 -16z m68 -16 c14 -23 -3 -52 -33 -56 -25 -4 -36
17 -27 54 8 29 42 30 60 2z"/>
<path d="M4356 1674 c-22 -21 -24 -305 -2 -323 11 -9 220 -17 307 -12 29 2 39
51 36 194 -2 110 -5 140 -17 147 -8 5 -81 10 -162 10 -120 0 -149 -3 -162 -16z
m312 -6 c8 -8 12 -58 12 -159 0 -125 -2 -148 -16 -153 -27 -10 -274 -7 -295 4
-17 10 -19 23 -19 150 0 113 3 142 16 154 12 13 41 16 153 16 93 0 141 -4 149
-12z"/>
<path d="M4480 1513 c2 -35 6 -47 8 -30 3 23 8 28 22 24 29 -7 54 15 46 41 -6
17 -15 22 -44 22 l-37 0 5 -57z m55 27 c0 -8 -10 -16 -22 -18 -18 -3 -23 2
-23 18 0 16 5 21 23 18 12 -2 22 -10 22 -18z"/>
<path d="M4749 1663 c-13 -36 -9 -290 6 -310 9 -12 38 -15 165 -14 93 1 159 6
167 13 18 14 19 308 1 326 -8 8 -60 12 -170 12 l-158 0 -11 -27z m321 2 c13
-16 19 -283 6 -304 -8 -12 -270 -16 -300 -5 -14 5 -16 28 -16 153 0 101 4 151
12 159 19 19 282 17 298 -3z"/>
<path d="M4915 1600 c-7 -32 1 -70 15 -70 6 0 6 10 0 25 -6 16 -6 34 0 50 5
14 6 25 1 25 -5 0 -12 -13 -16 -30z"/>
<path d="M4910 1455 c0 -30 4 -55 8 -55 4 0 8 25 8 55 -1 30 -4 55 -8 55 -5 0
-8 -25 -8 -55z"/>
<path d="M5162 1678 c-8 -8 -12 -60 -12 -166 0 -127 3 -157 15 -166 10 -7 66
-9 173 -6 l157 5 3 159 c2 108 -1 163 -9 172 -15 19 -309 20 -327 2z m309 -8
c17 -10 19 -23 19 -153 0 -98 -4 -147 -12 -155 -17 -17 -289 -17 -306 0 -15
15 -17 271 -2 299 10 17 22 19 146 19 74 0 144 -5 155 -10z"/>
<path d="M5314 1575 c0 -30 3 -52 7 -48 14 15 15 103 2 103 -5 0 -8 -25 -9
-55z"/>
<path d="M5319 1508 c0 -2 -1 -26 -2 -54 -1 -38 1 -50 11 -47 14 6 17 89 2 98
-5 3 -10 5 -11 3z"/>
<path d="M5560 1664 c-15 -38 -13 -286 3 -307 10 -15 33 -17 167 -18 136 0
156 2 167 17 9 13 13 61 13 160 0 116 -3 145 -16 158 -13 13 -43 16 -170 16
l-154 0 -10 -26z m318 8 c9 -7 12 -46 10 -163 l-3 -154 -153 -3 c-143 -2 -153
-1 -160 17 -4 11 -6 83 -4 160 3 121 5 140 20 144 31 8 277 7 290 -1z"/>
<path d="M5720 1581 c0 -28 5 -51 10 -51 6 0 10 20 10 44 0 25 -4 48 -10 51
-6 4 -10 -13 -10 -44z"/>
<path d="M5714 1474 c3 -9 9 -27 12 -40 3 -13 10 -24 14 -24 4 0 3 18 -2 40
-6 22 -15 40 -20 40 -6 0 -7 -7 -4 -16z"/>
<path d="M100 1281 c-5 -11 -10 -81 -10 -156 0 -75 5 -145 10 -156 10 -18 25
-19 344 -19 295 0 335 2 340 16 12 31 7 309 -6 322 -9 9 -98 12 -340 12 -313
0 -328 -1 -338 -19z m664 -13 c-1 -10 2 -15 7 -12 10 6 12 -238 3 -273 l-6
-23 -323 0 c-285 0 -324 2 -329 16 -12 31 -7 289 6 302 9 9 91 12 328 10 292
-3 315 -4 314 -20z"/>
<path d="M296 1082 c-3 -5 1 -9 9 -9 8 0 12 4 9 9 -3 4 -7 8 -9 8 -2 0 -6 -4
-9 -8z"/>
<path d="M373 1045 c0 -22 2 -30 4 -17 2 12 2 30 0 40 -3 9 -5 -1 -4 -23z"/>
<path d="M485 1055 c5 -26 2 -31 -15 -32 -11 -1 -20 2 -20 8 0 5 8 9 17 9 13
0 14 3 5 12 -8 8 -15 8 -26 -1 -11 -9 -15 -9 -18 0 -7 20 -38 2 -38 -21 0 -13
7 -20 20 -20 11 0 20 5 20 11 0 6 7 4 15 -5 17 -17 43 -11 62 13 13 17 18 39
6 28 -3 -4 -12 1 -20 11 -12 15 -13 14 -8 -13z m-69 -32 c-10 -10 -19 5 -10
18 6 11 8 11 12 0 2 -7 1 -15 -2 -18z"/>
<path d="M159 1043 c-17 -20 -1 -32 41 -31 35 0 40 3 40 23 0 20 -5 23 -35 22
-20 -1 -41 -7 -46 -14z m39 -14 c-19 -13 -28 -11 -28 5 0 9 7 12 21 9 16 -4
17 -8 7 -14z m29 -1 c-3 -8 -6 -5 -6 6 -1 11 2 17 5 13 3 -3 4 -12 1 -19z"/>
<path d="M257 1053 c-4 -3 -7 -19 -7 -35 0 -26 2 -27 20 -16 22 14 27 58 7 58
-8 0 -17 -3 -20 -7z m19 -30 c-10 -10 -19 5 -10 18 6 11 8 11 12 0 2 -7 1 -15
-2 -18z"/>
<path d="M306 1051 c-4 -5 2 -14 11 -20 17 -10 17 -10 0 -11 -10 0 -16 -4 -12
-10 10 -16 35 1 31 23 -3 23 -21 34 -30 18z"/>
<path d="M850 1290 c-12 -7 -15 -36 -15 -152 -1 -199 -12 -188 178 -188 106 0
157 4 165 12 17 17 17 309 0 326 -15 15 -305 17 -328 2z m320 -19 c15 -28 13
-284 -2 -299 -17 -17 -289 -17 -306 0 -17 17 -17 289 0 306 8 8 57 12 155 12
130 0 143 -2 153 -19z"/>
<path d="M989 1143 c-6 -21 -16 -43 -21 -50 -5 -7 -5 -13 0 -17 6 -3 12 1 16
9 7 20 56 20 56 0 0 -8 5 -15 10 -15 6 0 10 3 10 6 0 14 -43 104 -50 104 -5 0
-14 -17 -21 -37z m29 -22 c-15 -5 -19 4 -11 24 6 18 7 18 13 -1 4 -10 3 -21
-2 -23z"/>
<path d="M1252 1288 c-17 -17 -17 -309 0 -326 8 -8 60 -12 170 -12 145 0 158
1 168 19 5 11 10 81 10 156 0 75 -5 145 -10 156 -10 18 -23 19 -168 19 -110 0
-162 -4 -170 -12z m316 -10 c8 -8 12 -58 12 -159 0 -125 -2 -148 -16 -153 -32
-12 -291 -7 -302 7 -5 6 -11 73 -11 148 -2 114 1 139 14 153 14 13 41 16 154
16 93 0 141 -4 149 -12z"/>
<path d="M1535 1260 c-3 -6 1 -7 9 -4 18 7 21 14 7 14 -6 0 -13 -4 -16 -10z"/>
<path d="M1387 1173 c-18 -17 -6 -44 23 -50 17 -3 33 -10 36 -14 9 -15 -27
-23 -47 -10 -15 9 -19 8 -19 -4 0 -20 46 -31 65 -15 25 20 17 39 -22 55 -34
14 -36 17 -20 27 14 7 23 6 38 -8 20 -18 27 -6 7 14 -13 13 -50 16 -61 5z"/>
<path d="M1476 1171 c-3 -4 1 -17 10 -27 14 -18 15 -18 5 2 -6 12 -7 24 -4 28
3 3 4 6 0 6 -3 0 -8 -4 -11 -9z"/>
<path d="M1505 1119 c-4 -6 -5 -12 -2 -15 2 -3 7 2 10 11 7 17 1 20 -8 4z"/>
<path d="M1649 1273 c-13 -36 -1 -305 15 -315 19 -13 311 -9 324 4 17 17 17
309 0 326 -8 8 -60 12 -170 12 l-158 0 -11 -27z m326 0 c14 -14 16 -36 13
-152 -1 -75 -7 -142 -11 -148 -11 -18 -288 -18 -305 -1 -8 8 -12 57 -12 153 0
96 4 145 12 153 8 8 56 12 149 12 115 0 140 -3 154 -17z"/>
<path d="M1780 1125 c0 -54 0 -55 29 -55 32 0 61 30 61 62 0 26 -28 48 -61 48
-29 0 -29 -1 -29 -55z m65 0 c0 -25 -4 -31 -26 -33 -25 -3 -27 0 -27 33 0 33
2 36 27 33 22 -2 26 -8 26 -33z"/>
<path d="M2062 1288 c-17 -17 -17 -309 0 -326 14 -14 305 -17 326 -4 9 7 12
48 10 173 l-3 164 -160 3 c-116 2 -164 -1 -173 -10z m316 -10 c17 -17 17 -289
0 -306 -17 -17 -289 -17 -306 0 -8 8 -12 57 -12 153 0 96 4 145 12 153 17 17
289 17 306 0z"/>
<path d="M2190 1125 c0 -30 5 -55 10 -55 6 0 10 11 10 25 0 20 5 25 26 25 15
0 23 4 18 11 -3 6 -15 9 -25 6 -13 -4 -19 0 -19 13 0 13 6 16 24 13 13 -3 27
0 30 6 5 7 -7 11 -33 11 l-41 0 0 -55z"/>
<path d="M2460 1281 c-5 -11 -10 -82 -10 -160 0 -114 3 -142 16 -155 13 -13
43 -16 169 -16 142 0 155 2 165 19 5 11 10 81 10 156 0 75 -5 145 -10 156 -10
18 -23 19 -170 19 -147 0 -160 -1 -170 -19z m314 3 c14 -5 16 -29 16 -160 0
-182 18 -166 -180 -162 l-135 3 -3 150 c-1 82 0 155 2 162 4 10 40 13 145 13
77 0 146 -3 155 -6z"/>
<path d="M2597 1162 c-22 -24 -21 -55 1 -75 34 -31 82 -16 82 25 0 13 -8 18
-25 18 -14 0 -25 -5 -25 -10 0 -6 6 -10 14 -8 8 2 15 -1 15 -7 1 -5 -11 -10
-26 -10 -24 0 -28 4 -28 29 0 39 31 59 50 32 8 -11 18 -17 21 -13 11 11 -17
37 -41 37 -12 0 -29 -8 -38 -18z"/>
<path d="M2872 1288 c-17 -17 -17 -309 0 -326 17 -17 309 -17 326 0 17 17 17
309 0 326 -8 8 -59 12 -163 12 -104 0 -155 -4 -163 -12z m316 -10 c17 -17 17
-289 0 -306 -17 -17 -289 -17 -306 0 -17 17 -17 289 0 306 17 17 289 17 306 0z"/>
<path d="M2990 1125 c0 -30 5 -55 10 -55 6 0 10 11 10 25 0 20 5 25 25 25 20
0 25 -5 25 -25 0 -14 5 -25 10 -25 6 0 10 25 10 55 0 30 -4 55 -10 55 -5 0
-10 -9 -10 -20 0 -15 -7 -20 -25 -20 -18 0 -25 5 -25 20 0 11 -4 20 -10 20 -5
0 -10 -25 -10 -55z"/>
<path d="M3140 996 c0 -2 7 -7 16 -10 8 -3 12 -2 9 4 -6 10 -25 14 -25 6z"/>
<path d="M3276 1284 c-13 -13 -16 -41 -16 -155 0 -78 5 -149 10 -160 10 -18
23 -19 167 -19 137 0 157 2 169 18 16 21 19 283 4 313 -10 17 -23 19 -165 19
-126 0 -156 -3 -169 -16z m308 0 c24 -9 24 -309 0 -318 -24 -9 -277 -7 -292 2
-19 13 -20 301 -1 313 16 10 268 12 293 3z"/>
<path d="M3450 1135 c0 -42 -13 -60 -23 -32 -2 6 -8 9 -12 5 -13 -12 3 -38 24
-38 10 0 22 7 25 16 10 25 7 94 -4 94 -5 0 -10 -20 -10 -45z"/>
<path d="M3367 1059 c7 -7 15 -10 18 -7 3 3 -2 9 -12 12 -14 6 -15 5 -6 -5z"/>
<path d="M3683 1292 c-17 -11 -20 -307 -3 -327 16 -20 309 -22 328 -3 17 17
17 309 0 326 -14 14 -304 17 -325 4z m317 -21 c5 -11 10 -78 10 -150 0 -104
-3 -133 -16 -145 -12 -13 -41 -16 -149 -16 -73 0 -140 3 -149 6 -14 5 -16 28
-16 153 0 101 4 151 12 159 8 8 57 12 155 12 130 0 143 -2 153 -19z"/>
<path d="M3800 1130 c0 -39 4 -59 10 -55 6 4 9 14 8 22 -5 27 21 26 33 -1 14
-29 34 -34 43 -10 3 9 2 12 -4 9 -6 -4 -19 4 -30 17 -19 23 -19 23 8 45 20 17
23 23 10 23 -9 0 -25 -11 -36 -25 -25 -31 -34 -32 -26 -1 3 13 1 27 -5 30 -7
5 -11 -13 -11 -54z"/>
<path d="M4082 1288 c-17 -17 -17 -309 0 -326 17 -17 324 -17 335 1 13 19 16
278 4 310 l-11 27 -158 0 c-110 0 -162 -4 -170 -12z m322 -14 c3 -9 6 -76 6
-149 0 -73 -3 -140 -6 -149 -5 -14 -28 -16 -155 -16 -136 0 -149 2 -159 19 -5
11 -10 81 -10 155 0 118 2 136 18 145 9 6 81 11 158 11 120 0 143 -2 148 -16z"/>
<path d="M4212 1128 c3 -52 4 -53 36 -56 18 -2 32 1 32 7 0 6 -11 11 -25 11
-23 0 -25 4 -25 45 0 25 -5 45 -11 45 -6 0 -9 -21 -7 -52z"/>
<path d="M4479 1273 c-11 -29 -7 -293 6 -312 4 -7 65 -11 170 -11 139 0 164 2
169 16 12 31 7 309 -6 322 -8 8 -60 12 -170 12 l-158 0 -11 -27z m330 -2 c11
-19 7 -284 -4 -302 -7 -10 -273 -13 -299 -3 -14 5 -16 28 -16 153 0 101 4 151
12 159 8 8 57 12 155 12 129 0 143 -2 152 -19z"/>
<path d="M4640 1220 c0 -5 5 -10 10 -10 6 0 10 5 10 10 0 6 -4 10 -10 10 -5 0
-10 -4 -10 -10z"/>
<path d="M4640 1180 c0 -5 5 -10 10 -10 6 0 10 5 10 10 0 6 -4 10 -10 10 -5 0
-10 -4 -10 -10z"/>
<path d="M4640 1090 c0 -5 5 -10 10 -10 6 0 10 5 10 10 0 6 -4 10 -10 10 -5 0
-10 -4 -10 -10z"/>
<path d="M4640 1046 c0 -8 5 -18 10 -21 6 -3 10 3 10 14 0 12 -4 21 -10 21 -5
0 -10 -6 -10 -14z"/>
<path d="M4530 1006 c0 -2 8 -10 18 -17 15 -13 16 -12 3 4 -13 16 -21 21 -21
13z"/>
<path d="M4892 1288 c-17 -17 -17 -309 0 -326 18 -18 312 -17 330 1 18 18 16
301 -2 322 -16 20 -309 22 -328 3z m316 -10 c8 -8 12 -57 12 -153 0 -96 -4
-145 -12 -153 -17 -17 -289 -17 -306 0 -17 17 -17 289 0 306 17 17 289 17 306
0z"/>
<path d="M5030 1185 c0 -14 5 -25 10 -25 6 0 10 11 10 25 0 14 -4 25 -10 25
-5 0 -10 -11 -10 -25z"/>
<path d="M5071 1183 c0 -25 1 -26 9 -8 12 27 12 35 0 35 -5 0 -10 -12 -9 -27z"/>
<path d="M5058 1084 c-5 -4 -8 -19 -8 -33 0 -18 3 -22 11 -14 6 6 9 21 7 33
-1 12 -6 18 -10 14z"/>
<path d="M5290 1281 c-5 -11 -10 -81 -10 -156 0 -75 5 -145 10 -156 10 -18 24
-19 305 -19 281 0 295 1 305 19 5 11 10 81 10 156 0 75 -5 145 -10 156 -10 18
-24 19 -305 19 -281 0 -295 -1 -305 -19z m588 1 c9 -7 12 -46 10 -163 l-3
-154 -290 0 -290 0 -3 154 c-2 117 1 156 10 163 7 4 135 8 283 8 149 0 276 -4
283 -8z"/>
<path d="M5736 1072 c-3 -5 -1 -22 4 -38 8 -29 8 -29 9 9 1 36 -3 45 -13 29z"/>
<path d="M5633 1045 c-8 -23 6 -34 37 -32 23 1 30 7 30 22 0 16 2 17 9 5 6 -8
7 -18 5 -22 -3 -4 0 -8 6 -8 6 0 10 10 8 23 -3 19 -10 22 -46 24 -29 1 -45 -3
-49 -12z m47 -15 c-8 -5 -19 -10 -25 -10 -5 0 -3 5 5 10 8 5 20 10 25 10 6 0
3 -5 -5 -10z"/>
<path d="M5764 1045 c-7 -18 3 -35 22 -35 8 0 14 10 14 25 0 27 -27 35 -36 10z
m23 -10 c0 -8 -4 -15 -9 -15 -4 0 -8 7 -8 15 0 8 4 15 8 15 5 0 9 -7 9 -15z"/>
<path d="M5811 1033 c1 -22 2 -23 6 -8 3 11 10 23 17 27 7 5 5 8 -6 8 -13 0
-18 -7 -17 -27z"/>
<path d="M500 912 c-348 -2 -386 -4 -398 -19 -15 -21 -17 -285 -2 -314 10 -18
26 -19 440 -19 414 0 430 1 440 19 15 29 13 293 -2 313 -18 22 -42 23 -478 20z
m468 -166 c2 -98 -1 -153 -9 -162 -9 -11 -89 -13 -414 -14 -221 0 -410 2 -419
6 -14 5 -16 26 -16 149 0 79 3 151 6 159 6 15 50 16 428 14 l421 -3 3 -149z"/>
<path d="M207 658 c7 -40 13 -49 13 -20 0 12 5 22 11 22 6 0 9 -9 6 -20 -3
-11 -1 -20 4 -20 17 0 9 35 -11 53 -28 23 -30 22 -23 -15z"/>
<path d="M272 670 c-6 -11 -12 -28 -11 -37 1 -12 4 -10 9 7 l8 25 2 -25 c2
-21 4 -19 10 10 l7 35 2 -32 c1 -41 21 -44 21 -4 0 23 -14 41 -33 41 -1 0 -8
-9 -15 -20z"/>
<path d="M160 645 c0 -15 6 -25 14 -25 22 0 30 19 11 26 -13 6 -14 8 -3 15 10
7 9 9 -4 9 -13 0 -18 -8 -18 -25z"/>
<path d="M1067 911 c-31 -9 -37 -36 -37 -174 0 -76 5 -147 10 -158 10 -17 23
-19 163 -19 84 0 159 5 167 10 22 13 28 296 7 324 -12 17 -29 19 -155 20 -78
0 -148 -1 -155 -3z m301 -168 c2 -146 2 -152 -19 -163 -21 -12 -282 -11 -294
1 -12 13 -16 291 -4 305 9 12 43 14 163 12 l151 -3 3 -152z"/>
<path d="M1090 866 c0 -2 7 -7 16 -10 8 -3 12 -2 9 4 -6 10 -25 14 -25 6z"/>
<path d="M1176 779 c3 -6 17 -8 30 -5 31 8 30 -1 -6 -44 -17 -19 -30 -38 -30
-42 0 -4 20 -8 45 -8 50 0 62 17 15 22 l-31 3 30 35 c17 19 30 38 31 43 0 4
-21 7 -46 7 -30 0 -43 -4 -38 -11z"/>
<path d="M1140 739 c0 -5 5 -7 10 -4 6 3 10 8 10 11 0 2 -4 4 -10 4 -5 0 -10
-5 -10 -11z"/>
<path d="M1070 600 c0 -5 5 -10 11 -10 5 0 7 5 4 10 -3 6 -8 10 -11 10 -2 0
-4 -4 -4 -10z"/>
<path d="M1482 912 c-23 -2 -35 -10 -41 -25 -13 -35 -6 -294 9 -312 10 -12 41
-15 164 -15 105 0 156 4 164 12 8 8 12 59 12 164 0 125 -3 154 -16 164 -14 13
-206 20 -292 12z m286 -24 c18 -18 17 -292 -2 -307 -17 -14 -272 -14 -298 0
-16 9 -18 27 -18 159 0 109 3 150 13 153 27 12 293 7 305 -5z"/>
<path d="M1586 764 c16 -24 16 -26 -5 -55 -12 -16 -17 -29 -12 -29 5 0 17 10
26 23 l16 22 19 -25 c10 -14 22 -21 26 -17 4 4 -2 18 -15 30 l-21 24 21 26
c15 20 17 27 6 27 -8 0 -18 -10 -24 -22 l-10 -23 -12 23 c-6 12 -16 22 -22 22
-5 0 -2 -11 7 -26z"/>
<path d="M1880 912 c-35 -10 -40 -34 -40 -182 0 -100 4 -150 12 -158 15 -15
305 -17 328 -2 12 7 16 39 18 157 4 198 13 187 -164 189 -77 0 -146 -1 -154
-4z m288 -24 c17 -17 17 -289 0 -306 -17 -17 -289 -17 -306 0 -8 8 -12 57 -12
153 0 96 4 145 12 153 17 17 289 17 306 0z"/>
<path d="M1986 774 c-32 -31 -10 -94 33 -94 10 0 26 9 36 20 22 24 2 28 -22 5
-20 -21 -43 -2 -43 35 0 31 25 47 47 29 15 -13 28 -6 18 10 -9 16 -51 13 -69
-5z"/>
<path d="M2277 911 c-31 -9 -37 -36 -37 -171 0 -189 -9 -180 184 -180 105 0
156 4 164 12 8 8 12 59 12 164 0 123 -3 154 -15 164 -14 12 -274 21 -308 11z
m298 -21 c4 -6 6 -77 6 -157 -1 -106 -4 -149 -13 -155 -19 -11 -266 -10 -289
2 -17 10 -19 23 -19 159 0 81 3 151 7 154 11 12 301 8 308 -3z"/>
<path d="M2386 768 c17 -55 36 -90 44 -82 5 5 18 30 29 57 16 36 17 47 7 47
-8 0 -17 -15 -20 -35 -10 -50 -23 -52 -37 -5 -7 22 -16 40 -21 40 -5 0 -6 -10
-2 -22z"/>
<path d="M2678 911 c-7 -2 -16 -9 -20 -15 -13 -19 -9 -311 4 -324 17 -17 312
-17 326 1 6 6 13 74 16 150 5 136 -2 186 -28 188 -55 3 -289 3 -298 0z m300
-23 c8 -8 12 -57 12 -155 0 -134 -1 -143 -21 -153 -22 -13 -277 -9 -297 4 -17
10 -17 287 0 304 17 17 289 17 306 0z"/>
<path d="M2780 740 c0 -55 11 -67 55 -56 22 6 24 11 22 54 -2 47 -2 47 -39 50
l-38 3 0 -51z m60 20 c0 -4 -9 -10 -20 -13 -15 -4 -20 0 -20 13 0 13 5 17 20
13 11 -3 20 -9 20 -13z m10 -45 c0 -9 -9 -15 -25 -15 -16 0 -25 6 -25 15 0 9
9 15 25 15 16 0 25 -6 25 -15z"/>
<path d="M3087 911 c-31 -9 -37 -35 -37 -177 0 -116 3 -145 16 -158 13 -13 43
-16 169 -16 142 0 155 2 165 19 16 30 13 293 -4 316 -12 16 -29 19 -155 19
-77 1 -147 -1 -154 -3z m300 -25 c4 -8 7 -80 5 -159 -3 -140 -4 -145 -25 -151
-29 -8 -261 -8 -281 0 -14 5 -16 29 -16 158 0 84 3 156 7 159 3 4 73 7 154 7
118 0 150 -3 156 -14z"/>
<path d="M3190 741 c0 -28 5 -53 10 -56 6 -4 10 11 10 36 l0 43 27 -42 c15
-23 31 -42 35 -42 5 0 8 25 8 55 0 30 -4 55 -10 55 -5 0 -10 -17 -10 -37 l-1
-38 -22 37 c-31 53 -47 49 -47 -11z"/>
<path d="M3487 911 c-6 -2 -15 -9 -19 -15 -13 -19 -9 -311 4 -324 17 -17 309
-17 326 0 8 8 12 59 12 164 0 125 -3 154 -16 165 -11 9 -56 13 -155 13 -76 1
-145 -1 -152 -3z m301 -23 c17 -17 17 -289 0 -306 -15 -15 -271 -17 -299 -2
-17 10 -19 23 -19 153 0 98 4 147 12 155 17 17 289 17 306 0z"/>
<path d="M3590 735 c0 -30 5 -55 10 -55 6 0 8 17 5 43 l-5 42 14 -30 c9 -16
15 -36 16 -42 0 -25 21 -12 27 17 3 17 10 33 15 36 6 4 7 -9 3 -30 -5 -24 -3
-36 4 -36 7 0 11 21 11 55 0 64 -14 72 -31 15 -14 -46 -25 -44 -35 5 -11 58
-34 44 -34 -20z"/>
<path d="M3943 913 c-50 -3 -65 -8 -73 -24 -17 -31 -11 -296 7 -314 11 -12 46
-15 168 -15 142 0 155 2 165 19 15 29 13 293 -2 314 -10 13 -34 17 -108 20
-52 2 -123 2 -157 0z m255 -168 c2 -132 1 -151 -15 -162 -19 -14 -269 -18
-290 -5 -14 9 -22 290 -9 310 5 9 48 12 159 10 l152 -3 3 -150z"/>
<path d="M4036 813 c-28 -15 -29 -16 -11 -29 10 -8 26 -14 34 -13 14 0 14 2
-1 12 -15 10 -15 12 0 23 26 19 10 24 -22 7z"/>
<path d="M4030 665 c0 -8 5 -15 10 -15 6 0 10 7 10 15 0 8 -4 15 -10 15 -5 0
-10 -7 -10 -15z"/>
<path d="M4358 910 c-42 -3 -80 -9 -85 -13 -4 -5 -8 -78 -8 -163 0 -127 3
-156 15 -164 8 -5 81 -10 162 -10 120 0 149 3 162 16 13 13 16 42 16 162 0 81
-4 153 -9 160 -9 15 -126 20 -253 12z m242 -29 c5 -11 10 -78 10 -150 0 -105
-3 -133 -16 -145 -13 -13 -40 -16 -147 -15 -72 0 -139 5 -149 10 -16 9 -18 25
-18 152 0 98 4 147 12 155 8 8 57 12 155 12 130 0 143 -2 153 -19z"/>
<path d="M4420 811 c0 -5 10 -12 23 -15 l22 -7 -24 -10 c-32 -13 -21 -22 13
-10 33 13 33 25 1 39 -31 14 -35 15 -35 3z"/>
<path d="M4440 660 c0 -5 5 -10 10 -10 6 0 10 5 10 10 0 6 -4 10 -10 10 -5 0
-10 -4 -10 -10z"/>
<path d="M4689 902 c-17 -12 -19 -28 -19 -158 0 -81 5 -154 10 -165 10 -17 23
-19 164 -19 130 0 156 3 167 16 17 21 20 307 3 324 -17 17 -302 19 -325 2z
m315 -18 c12 -31 7 -289 -6 -302 -8 -8 -56 -12 -149 -12 -112 0 -141 3 -153
16 -13 12 -16 41 -16 153 0 93 4 141 12 149 8 8 58 12 159 12 125 0 148 -2
153 -16z"/>
<path d="M4827 833 c-13 -13 -7 -25 7 -14 17 15 28 1 15 -19 -12 -21 -11 -50
2 -50 6 0 9 6 6 13 -3 7 1 21 9 32 10 13 11 22 3 32 -12 14 -32 17 -42 6z"/>
<path d="M4841 679 c-7 -23 -10 -43 -7 -46 3 -3 7 0 10 8 2 8 9 29 15 47 5 17
6 32 2 32 -4 0 -13 -18 -20 -41z"/>
<path d="M5151 910 c-64 -5 -65 -5 -74 -40 -14 -51 -2 -291 15 -301 7 -5 189
-9 405 -9 378 0 393 1 403 19 15 29 13 306 -3 319 -13 11 -630 21 -746 12z
m737 -169 c2 -116 -1 -156 -10 -162 -21 -13 -758 -11 -774 2 -19 16 -20 305
-1 312 6 3 185 5 397 4 l385 -2 3 -154z"/>
<path d="M5701 678 c3 -28 -2 -37 -17 -31 -13 5 -13 8 -2 15 10 7 8 8 -6 6
-12 -2 -20 -12 -21 -26 -2 -21 2 -23 27 -18 20 4 27 2 22 -6 -4 -7 -3 -8 4 -4
7 4 12 17 13 29 1 21 1 21 7 2 4 -12 18 -21 34 -23 23 -3 27 1 31 30 l4 33 1
-32 c2 -41 17 -43 18 -3 1 17 -5 31 -13 35 -23 8 -34 -4 -27 -31 4 -14 2 -24
-5 -24 -6 0 -10 3 -10 8 3 19 -2 25 -11 12 -9 -13 -10 -13 -10 0 0 8 -9 21
-21 28 -16 10 -20 10 -18 0z"/>
<path d="M140 522 c-46 -6 -50 -23 -50 -213 0 -147 3 -180 15 -193 23 -22 321
-19 335 4 5 8 10 97 10 197 0 227 9 216 -167 212 -65 -2 -129 -5 -143 -7z
m279 -21 c11 -7 14 -44 12 -187 -1 -98 -5 -182 -10 -187 -4 -4 -75 -6 -157 -5
l-149 3 -3 180 c-1 98 0 185 2 192 6 15 282 19 305 4z"/>
<path d="M200 356 c7 -7 13 -7 20 0 6 6 3 10 -10 10 -13 0 -16 -4 -10 -10z"/>
<path d="M306 357 c3 -10 9 -15 12 -12 3 3 0 11 -7 18 -10 9 -11 8 -5 -6z"/>
<path d="M229 338 c-5 -63 -5 -88 3 -88 7 0 13 48 9 73 0 4 4 7 9 7 6 0 10 5
10 10 0 15 -30 12 -31 -2z"/>
<path d="M260 286 c0 -20 4 -36 9 -36 6 0 9 12 8 26 -1 15 4 29 11 31 8 3 12
-6 12 -26 0 -17 5 -31 11 -31 6 0 9 14 7 33 -2 27 -8 33 -30 35 -26 3 -28 1
-28 -32z"/>
<path d="M530 521 l-25 -7 -3 -193 c-2 -134 1 -198 9 -207 15 -19 309 -20 327
-2 9 9 12 68 12 205 0 173 -2 193 -17 202 -21 11 -267 13 -303 2z m305 -33 c3
-13 4 -99 3 -193 l-3 -170 -160 0 -160 0 -3 179 c-2 123 1 183 9 192 9 11 46
14 160 14 146 0 149 0 154 -22z"/>
<path d="M658 321 c2 -25 7 -50 11 -54 14 -14 41 5 41 28 0 13 6 25 13 28 6 2
9 8 4 12 -10 12 -28 -8 -30 -34 -2 -37 -17 -23 -17 18 0 22 -5 41 -12 44 -10
3 -12 -8 -10 -42z"/>
<path d="M740 308 c0 -28 2 -49 4 -47 8 9 13 99 5 99 -5 0 -9 -23 -9 -52z"/>
<path d="M602 328 c-26 -26 -1 -77 33 -64 23 8 18 28 -5 21 -16 -5 -20 -2 -20
15 0 18 4 21 21 17 13 -3 19 -1 16 6 -5 17 -30 20 -45 5z"/>
<path d="M921 514 c-20 -14 -21 -24 -21 -199 0 -149 3 -186 15 -198 12 -12 44
-15 167 -14 152 2 152 2 165 27 18 35 18 350 1 372 -19 24 -296 33 -327 12z
m314 -199 l0 -190 -155 0 -155 0 -3 180 c-1 98 0 185 3 192 3 11 39 13 157 11
l153 -3 0 -190z"/>
<path d="M970 366 c0 -2 7 -7 16 -10 8 -3 12 -2 9 4 -6 10 -25 14 -25 6z"/>
<path d="M1016 359 c4 -8 30 -6 38 2 3 3 -5 5 -19 5 -13 0 -22 -3 -19 -7z"/>
<path d="M1091 308 c1 -55 5 -50 11 15 2 20 0 37 -4 37 -4 0 -7 -24 -7 -52z"/>
<path d="M1120 318 c0 -26 5 -50 11 -53 16 -11 23 3 10 19 -7 8 -10 23 -7 33
3 10 1 25 -4 33 -7 11 -10 2 -10 -32z"/>
<path d="M1025 330 c-4 -6 -4 -14 -1 -17 3 -3 1 -12 -6 -20 -16 -20 3 -36 34
-28 22 6 24 10 19 38 -7 32 -33 48 -46 27z m32 -16 c-3 -3 -12 -4 -19 -1 -8 3
-5 6 6 6 11 1 17 -2 13 -5z m3 -24 c0 -5 -7 -10 -16 -10 -8 0 -12 5 -9 10 3 6
10 10 16 10 5 0 9 -4 9 -10z"/>
<path d="M1438 523 c-99 -3 -119 -6 -126 -21 -5 -9 -8 -97 -7 -196 1 -149 4
-181 17 -190 18 -13 435 -15 456 -3 15 10 17 373 2 397 -10 16 -117 20 -342
13z m331 -27 c8 -9 11 -69 9 -192 l-3 -179 -225 0 -225 0 -3 179 c-2 123 1
183 9 192 17 20 421 20 438 0z"/>
<path d="M1650 351 c0 -5 -9 -11 -20 -14 -14 -4 -20 -14 -20 -35 0 -32 13 -42
43 -34 13 3 17 15 17 48 0 24 -4 44 -10 44 -5 0 -10 -4 -10 -9z m0 -52 c0 -20
-15 -26 -25 -9 -9 15 3 43 15 35 5 -3 10 -15 10 -26z"/>
<path d="M1442 328 c-15 -15 -15 -30 1 -52 8 -11 19 -15 30 -10 24 9 21 23 -3
17 -16 -4 -20 0 -20 17 0 18 4 21 21 17 13 -3 19 -1 16 6 -5 17 -30 20 -45 5z"/>
<path d="M1500 303 c0 -18 4 -33 10 -33 5 0 9 10 7 21 -1 12 4 24 11 26 8 3
12 -6 12 -28 0 -18 3 -29 8 -25 4 4 7 17 7 28 0 12 6 23 13 26 8 2 12 -7 12
-28 0 -17 4 -29 8 -26 4 3 6 20 4 40 -4 34 -5 34 -48 33 -43 -1 -44 -2 -44
-34z"/>
<path d="M1895 520 l-50 -5 -3 -197 c-2 -180 -1 -198 15 -206 10 -5 434 -9
975 -10 753 0 959 2 967 12 12 14 17 360 6 389 -4 9 -12 17 -19 18 -49 4
-1852 3 -1891 -1z m1893 -18 c9 -7 12 -52 10 -193 l-3 -184 -950 -3 c-522 -1
-960 0 -972 3 -23 5 -23 7 -23 183 0 125 4 182 12 190 9 9 236 12 963 12 522
0 956 -4 963 -8z"/>
<path d="M3899 522 c-35 -10 -39 -34 -39 -211 0 -97 5 -183 10 -191 8 -12 47
-16 228 -18 192 -3 222 -1 236 13 14 14 16 44 16 198 0 100 -5 189 -10 197 -8
13 -44 15 -218 15 -115 1 -216 -1 -223 -3z m429 -29 c12 -24 9 -350 -4 -363
-10 -10 -417 -16 -434 -5 -11 7 -15 367 -3 378 3 4 102 7 219 7 193 0 214 -2
222 -17z"/>
<path d="M4215 351 c3 -5 -5 -11 -17 -13 -15 -2 -24 -11 -26 -26 -5 -30 14
-51 38 -45 16 4 20 14 20 49 0 24 -5 44 -11 44 -5 0 -8 -4 -4 -9z m-2 -58 c-7
-18 -22 -16 -30 3 -7 19 18 38 28 22 4 -6 5 -17 2 -25z"/>
<path d="M4007 333 c-4 -3 -7 -19 -7 -34 0 -28 15 -40 38 -31 18 6 15 20 -5
18 -10 0 -19 7 -21 18 -3 15 0 18 17 13 14 -3 21 0 21 9 0 14 -31 20 -43 7z"/>
<path d="M4069 327 c0 -6 -2 -22 -3 -34 -2 -13 1 -23 6 -23 4 0 8 11 8 24 0
14 5 28 10 31 6 4 10 -7 10 -24 0 -17 5 -31 10 -31 6 0 10 11 10 25 0 14 6 25
14 25 8 0 12 -8 9 -23 -3 -13 2 -28 9 -35 12 -9 13 -4 9 31 -6 41 -7 42 -48
44 -29 2 -43 -1 -44 -10z"/>
<path d="M4432 523 c-39 -7 -43 -34 -40 -217 2 -128 7 -177 17 -189 20 -24
301 -25 325 -1 13 13 16 45 16 197 0 100 -5 189 -10 197 -7 12 -36 15 -147 16
-76 0 -148 -1 -161 -3z m296 -26 c6 -7 11 -83 12 -189 1 -210 21 -190 -185
-186 l-140 3 -3 184 c-2 141 1 186 10 193 22 13 294 10 306 -5z"/>
<path d="M4580 309 c0 -29 4 -48 10 -44 12 7 11 95 -1 95 -5 0 -9 -23 -9 -51z"/>
<path d="M4612 313 c2 -25 8 -48 14 -50 6 -2 9 13 8 39 -3 59 -3 58 -15 58 -6
0 -9 -19 -7 -47z"/>
<path d="M4517 333 c-14 -13 -6 -21 16 -16 18 3 17 1 -7 -12 -24 -14 -26 -19
-15 -31 20 -20 59 -7 59 20 0 34 -34 59 -53 39z m33 -43 c0 -5 -7 -10 -16 -10
-8 0 -12 5 -9 10 3 6 10 10 16 10 5 0 9 -4 9 -10z"/>
<path d="M5184 512 c-20 -19 -19 -151 1 -180 14 -19 14 -24 -1 -47 -13 -20
-16 -41 -12 -94 3 -38 8 -73 12 -80 5 -7 58 -11 166 -11 186 0 180 -4 180 109
0 51 -4 74 -16 86 -15 15 -15 17 0 34 23 25 23 163 -1 182 -23 20 -310 21
-329 1z m324 -90 c3 -74 1 -83 -17 -90 -11 -4 -82 -5 -158 -2 l-138 5 -3 74
c-2 41 -1 80 2 88 5 11 36 13 158 11 l153 -3 3 -83z m-14 -128 c13 -5 16 -23
16 -89 0 -66 -3 -84 -16 -89 -27 -10 -292 -7 -299 4 -3 5 -6 44 -6 85 0 41 3
80 6 85 7 11 272 14 299 4z"/>
<path d="M5328 417 l-16 -33 33 4 c32 4 32 4 18 33 -8 16 -16 29 -17 29 -1 0
-9 -15 -18 -33z"/>
<path d="M5315 230 c-2 -3 5 -15 15 -27 l18 -23 16 25 c9 14 15 25 14 26 -14
4 -60 4 -63 -1z"/>
<path d="M4802 298 c-16 -16 -16 -170 0 -186 8 -8 59 -12 165 -12 140 0 153 2
163 19 14 27 13 164 -2 179 -17 17 -309 17 -326 0z m320 -20 c4 -7 8 -43 8
-80 0 -56 -3 -69 -19 -78 -28 -15 -284 -13 -299 2 -19 19 -16 155 3 166 25 13
297 4 307 -10z"/>
<path d="M4948 221 l-26 -17 29 -16 29 -17 0 34 c0 19 -1 35 -2 34 -2 0 -15
-8 -30 -18z"/>
<path d="M5571 296 c-18 -21 -18 -175 0 -187 22 -14 313 -11 327 3 7 7 12 43
12 93 0 50 -5 86 -12 93 -18 18 -312 17 -327 -2z m320 -17 c13 -21 11 -143 -3
-157 -13 -13 -271 -18 -302 -6 -22 8 -23 159 -2 171 8 4 78 7 156 7 109 -1
144 -4 151 -15z"/>
<path d="M5710 206 l0 -35 29 17 c16 9 29 17 28 17 -1 1 -14 9 -29 18 l-28 17
0 -34z"/>
</g>
</svg>
